<svg xmlns="http://www.w3.org/2000/svg" version="1.1" xmlns:xlink="http://www.w3.org/1999/xlink" xmlns:svgjs="http://svgjs.dev/svgjs" width="100%" height="100%" viewBox="0 0 1000 600"><rect width="1000" height="600" x="0" y="0" fill="#00000000"/><g><rect width="333.3333333333333" height="333.3333333333333" rx="13.333333333333334" ry="13.333333333333334" y="114.65518297724643" fill="#1c2536" transform="matrix(1.3523314843324714,0,0,1.3523314843324712,0,-80.44040811450378)" x="92.4329605102539"/><path d="M278.0959872618393 301.5310710619402L278.0959872618393 301.5310710619402Q274.3967759949505 301.5310710619402 274.3967759949505 297.1647889108583L274.3967759949505 297.1647889108583Q274.3967759949505 294.9816478353174 277.67148760826194 293.6475060669312L277.67148760826194 293.6475060669312Q279.85462868380284 292.7985067597765 281.8255199325551 292.2527214908912Q283.7660897774804 291.706936222006 285.94923085302133 290.8276155110242L285.94923085302133 290.8276155110242Q292.95347513704854 288.1896533780789 297.7442569417078 281.97376559355257Q302.5653601501941 275.75787780902624 304.96075105252373 267.9046342178443Q307.3561419548534 260.0513906266623 307.3561419548534 253.0471463426351L307.3561419548534 253.0471463426351Q307.3561419548534 245.86097363564616 305.17300087931244 239.9482998893894L305.17300087931244 239.9482998893894Q301.23121838180793 249.98468455611234 290.9825838882963 253.71421722682814L290.9825838882963 253.71421722682814Q284.43316066167347 255.8973583023691 279.52109324170635 259.5965695692579Q274.6090258217392 263.3261022399737 274.6090258217392 271.39159565794444L274.6090258217392 271.39159565794444Q274.6090258217392 279.03258942233776 268.05960259511636 282.7318006892266L268.05960259511636 282.7318006892266Q265.20939063538236 284.27819228440137 262.1772502526866 284.9149417647675Q259.1147884661639 285.5820126489606 255.38525579544807 285.3697628221719L255.38525579544807 285.3697628221719Q253.8691856041002 285.1575129953832 252.2318297974445 284.82397755328657Q250.5944739907888 284.4904421111901 249.07840379944093 283.6111214002083L249.07840379944093 283.6111214002083Q249.07840379944093 287.0980828403084 249.62418906832616 289.7360449732538Q250.16997433721139 292.3436857023721 251.47379470177057 293.8900772975469L251.47379470177057 293.8900772975469Q252.98986489311847 295.6183973156835 252.98986489311847 297.5892885644357L252.98986489311847 297.5892885644357Q252.98986489311847 301.5310710619402 246.6526914932843 301.07625000453584L246.6526914932843 301.07625000453584Q242.07415951541373 300.6517503509584 242.07415951541373 288.856724262272L242.07415951541373 288.856724262272Q242.07415951541373 289.2812239158494 242.07415951541373 287.3406540709241Q242.07415951541373 285.3697628221719 241.6496598618363 281.21573049787867L241.6496598618363 281.21573049787867L241.6496598618363 279.03258942233776Q241.6496598618363 275.75787780902624 242.28640934220243 273.57473673348534L242.28640934220243 273.57473673348534L243.37797987997288 270.72452477375134L243.37797987997288 266.3582426226694Q244.46955041774336 266.6008138532851 245.34887112872514 266.8130636800738Q246.2281918397069 267.0253135068625 246.6526914932843 267.2375633336512L246.6526914932843 267.2375633336512Q247.5320122042661 266.8130636800738 248.29004729994003 266.6008138532851Q249.07840379944093 266.3582426226694 249.92740310659573 266.3582426226694L249.92740310659573 266.3582426226694Q250.8067238175775 266.3582426226694 251.89829435534796 266.4795282379773Q252.98986489311847 266.6008138532851 253.8691856041002 266.6008138532851L253.8691856041002 266.6008138532851Q260.6308586575118 266.6008138532851 264.026855886131 262.7803169710885Q267.3925317109233 258.9598200888918 267.3925317109233 254.35096670719426L267.3925317109233 254.35096670719426Q267.3925317109233 253.92646705361685 267.3015674994424 253.0471463426351Q267.1802818841346 252.1678256316533 266.9680320573459 251.07625509388285L266.9680320573459 251.07625509388285Q264.11782009761185 246.28547328922352 259.9941091771457 246.28547328922352L259.9941091771457 246.28547328922352Q258.23546775518207 246.28547328922352 256.9316473906229 247.49832944230187Q255.62782702606376 248.68086419155318 254.74850631508198 254.80578776459865L254.74850631508198 254.80578776459865Q254.08143543088892 259.3843197424692 251.0189736443662 259.3843197424692L251.0189736443662 259.3843197424692Q247.74426203105477 259.3843197424692 246.6526914932843 257.8682495511214L246.6526914932843 257.8682495511214Q244.04505076416595 258.0804993779101 240.43680370875802 258.5049990314874Q236.82855665335006 258.9598200888918 232.25002467547947 259.3843197424692L232.25002467547947 259.3843197424692Q228.33856358180194 260.263640453451 224.73031652639398 260.6881401070284Q221.12206947098602 261.1429611644328 217.6351080308859 261.1429611644328L217.6351080308859 261.1429611644328Q214.99714589794058 261.1429611644328 212.60175499561095 260.9003899338171Q210.2063640932813 260.6881401070284 207.81097319095164 260.0513906266623L207.81097319095164 260.0513906266623Q204.08144052023587 258.9598200888918 204.08144052023587 255.8973583023691L204.08144052023587 255.8973583023691L206.7194026531812 246.0732234624348Q212.81400482239965 224.2418127070254 225.4883516220679 215.2969985780729Q238.1626984217362 206.32186304529344 260.2063590039344 206.32186304529344L260.2063590039344 206.32186304529344Q268.9389233060981 206.32186304529344 278.0959872618393 209.50561044712398Q287.28337262140747 212.6590364451276 295.22758042407037 218.11688913397995Q303.20210963056024 223.57474182283232 308.44771249262385 230.33641487624385L308.44771249262385 230.33641487624385Q314.1178150082649 237.76515881384844 314.1178150082649 251.9555758048646L314.1178150082649 251.9555758048646Q314.1178150082649 269.4207044091921 308.02321283904644 280.45769540220476Q301.89828926600103 291.4643649913903 285.5247311994439 299.10535875578364L285.5247311994439 299.10535875578364Q280.27912833738026 301.5310710619402 278.0959872618393 301.5310710619402ZM216.75578731990413 252.1678256316533L216.75578731990413 252.1678256316533Q225.06385196849052 252.1678256316533 241.4374100350476 251.53107615128718L241.4374100350476 251.53107615128718Q241.19483880443195 248.04411471118706 239.55748299777622 243.2230115027008Q237.9201271911205 238.43222969804154 235.73698611557958 235.5820177383075L235.73698611557958 235.5820177383075Q231.3707039644977 228.60809485810728 232.03777484869076 220.30003020952088L232.03777484869076 220.30003020952088Q219.81824910642686 226.42495378256635 214.5726462443632 243.2230115027008L214.5726462443632 243.2230115027008Q212.81400482239965 248.8931140183419 212.81400482239965 249.77243472932363L212.81400482239965 249.77243472932363Q212.81400482239965 252.1678256316533 216.75578731990413 252.1678256316533ZM264.99714080859366 303.25939108007685L264.99714080859366 303.25939108007685Q263.0262495598414 303.25939108007685 260.2063590039344 302.0768563308254Q257.3561470442003 300.86400017774713 257.3561470442003 299.10535875578364L257.3561470442003 299.10535875578364Q257.3561470442003 296.0732183730879 261.72242919528225 296.70996785345403L261.72242919528225 296.70996785345403Q264.36039132822754 296.92221768024274 265.6642116927867 297.25575312233923Q266.9680320573459 297.5892885644357 267.1802818841346 297.5892885644357L267.1802818841346 297.5892885644357Q269.1511731328868 298.4686092754175 269.1511731328868 300.19692929355415L269.1511731328868 300.19692929355415Q269.1511731328868 303.25939108007685 264.99714080859366 303.25939108007685ZM261.29792954170483 356.32184777725263L261.29792954170483 356.32184777725263Q258.4477175819708 356.32184777725263 255.84007685285246 355.65477689305953L255.84007685285246 355.65477689305953Q244.25730059095466 353.0471361639411 237.82916297963965 347.0434982062036Q231.3707039644977 341.03986024846597 231.82552502190205 333.61111631086135L231.82552502190205 333.61111631086135Q232.91709555967253 316.3582375333225 243.16573005318418 311.9919553822406L243.16573005318418 311.9919553822406Q255.38525579544807 306.74635252017697 261.5101793684935 306.74635252017697L261.5101793684935 306.74635252017697Q266.3009611731528 306.74635252017697 271.0007787663312 309.05077921102577Q275.70059635950963 311.35520590187446 279.64237885701414 313.7505968042042L279.64237885701414 313.7505968042042Q279.3998076263985 313.5383469774155 279.3998076263985 312.8712760932224L279.3998076263985 312.8712760932224Q278.308237088628 309.8088143066997 279.85462868380284 309.8088143066997L279.85462868380284 309.8088143066997Q281.15844904836206 309.8088143066997 282.58355502822906 312.8712760932224Q284.00866100809606 315.9337378797451 285.3124813726552 320.1787344155192Q286.61630173721437 324.4540523551202 287.37433683288833 328.15326362200904Q288.1323719285623 331.85247488889786 288.1323719285623 333.18661665728393L288.1323719285623 333.18661665728393Q288.1323719285623 339.4934686532911 283.8873753927882 344.7390715153548Q279.64237885701414 349.9846743774184 273.3961696686609 353.138100375422Q267.1802818841346 356.32184777725263 261.29792954170483 356.32184777725263ZM262.3895000794753 337.09807775096147L262.3895000794753 337.09807775096147Q266.0887113463641 337.09807775096147 271.4555998237356 333.82336613765005Q276.79216689728014 330.54865452433864 280.94619922157335 322.6954109331566L280.94619922157335 322.6954109331566Q281.37069887515077 322.2709112795792 281.37069887515077 322.0283400489636L281.37069887515077 322.0283400489636Q280.73394939478464 321.6038403953861 279.64237885701414 320.300020030827L279.64237885701414 320.300020030827Q276.12509601308705 315.7214880529564 271.1220643816391 313.841561015685Q266.0887113463641 311.9919553822406 259.75153794653 312.44677643964496L259.75153794653 312.44677643964496Q249.2906536262296 313.0835259200111 243.71151532206943 316.8130585907269Q238.1626984217362 320.5122698576157 237.07112788396572 331.21572540853174L237.07112788396572 331.21572540853174Q238.5871980753136 331.00347558174303 239.89101843987277 330.88218996643513Q241.19483880443195 330.76090435112735 242.52898057281809 330.76090435112735L242.52898057281809 330.76090435112735Q247.98683326167043 330.76090435112735 251.68604452855928 332.94404542666825L251.68604452855928 332.94404542666825Q259.3270382929526 337.09807775096147 262.3895000794753 337.09807775096147Z " fill="#ffffff" transform="matrix(1.3523314843324714,0,0,1.3523314843324712,0,-80.44040811450378)"/><path d="M576.2509273018293 356.3218490615553L576.2509273018293 356.3218490615553Q546.4406035180746 356.3218490615553 531.8673699398021 342.44408433083595L531.8673699398021 342.44408433083595Q519.1276451414424 330.3682161596861 515.9348108867666 301.69593230829093L515.9348108867666 301.69593230829093L512.5206910896875 246.84873001262318Q511.1613656149246 237.96569609614906 509.1065712926085 220.89509711075394L509.1065712926085 220.89509711075394Q508.88528575020524 214.50942860140242 515.7135253443632 214.0668575165959L515.7135253443632 214.0668575165959Q518.210890751486 213.8455719741926 522.4153160571481 213.94040863522258Q526.6197413628101 214.0668575165959 530.9506155498457 214.0668575165959Q535.281489736881 214.0668575165959 537.7788551440037 214.0668575165959L537.7788551440037 214.0668575165959Q540.2762205511262 213.8455719741926 545.3974002467448 212.9288175842362Q550.5185799423634 212.0120631942798 555.544922976952 211.0953088043234Q560.5396537911972 210.178554414367 562.5944481135132 210.178554414367L562.5944481135132 210.178554414367Q565.3130990630391 210.178554414367 568.0633622329083 212.70753204183293Q570.7820131824342 215.20489744895556 571.0032987248376 217.92354839848144L571.0032987248376 217.92354839848144L571.0032987248376 218.3977317036313Q571.0032987248376 220.1996282632008 567.5891789277584 220.89509711075394L567.5891789277584 220.89509711075394L568.0633622329083 222.47570812792014Q568.0633622329083 224.30921690783296 568.0633622329083 227.37560228113543Q568.0633622329083 230.44198765443787 567.8104644701618 234.55157629907004L567.8104644701618 234.55157629907004Q567.5891789277584 242.73914136799104 567.8104644701618 246.84873001262318L567.8104644701618 246.84873001262318Q568.0633622329083 250.00995204695565 568.1581988939383 252.63376633545155Q568.2846477753117 255.25758062394746 568.2846477753117 257.3123749462635L568.2846477753117 257.3123749462635Q568.2846477753117 264.36190008282483 567.1466078429519 264.8044711676314L567.1466078429519 264.8044711676314Q565.5343846054425 261.1690658281491 562.8157336559166 242.96042691039432L562.8157336559166 242.96042691039432Q560.0970827063907 224.75178799263952 560.5396537911972 221.33766819556047L560.5396537911972 221.33766819556047Q558.2635739264779 221.33766819556047 552.3520887222762 220.67381156835066L552.3520887222762 220.67381156835066Q549.8547233151535 220.1996282632008 547.7999289928375 220.10479160217082Q545.7451346705213 219.9783427207975 544.1645236533552 220.1996282632008L544.1645236533552 220.1996282632008Q539.8336494663197 220.67381156835066 533.1002465331917 221.1163826531572Q526.398455820407 221.55895373796372 517.736707446336 222.47570812792014L517.736707446336 222.47570812792014L518.210890751486 224.53050245023624Q521.8462960909683 225.66854238259592 526.6197413628101 229.77813102722806L526.6197413628101 229.77813102722806Q527.7577812951699 230.66327319684115 531.5196355160255 231.0110076206177Q535.281489736881 231.3587420443943 541.1929749410826 231.3587420443943L541.1929749410826 231.3587420443943Q548.4637856200472 231.3587420443943 553.1423942308593 235.6896162314297Q557.8210028416713 240.02049041846513 557.8210028416713 247.98676994498285L557.8210028416713 247.98676994498285Q557.8210028416713 255.95304947150063 551.4353343323198 262.0858202181055L551.4353343323198 262.0858202181055Q544.3858091957584 268.69277426986037 544.8283802805649 276.88033933878125L544.8283802805649 276.88033933878125Q545.0496658229683 279.1564192035006 546.4406035180746 282.57053900057963Q547.7999289928375 285.98465879765877 549.2857033489737 289.27232971336446Q550.7398654847666 292.59161284941354 550.7398654847666 294.8676927141329L550.7398654847666 294.8676927141329Q551.4353343323198 305.7739087325798 535.281489736881 305.7739087325798L535.281489736881 305.7739087325798Q528.2319646003198 305.7739087325798 522.2888671757747 303.49782886786045L522.2888671757747 303.49782886786045Q526.1771702780036 324.6780164978877 537.5575696016003 335.36294697393134L537.5575696016003 335.36294697393134Q538.0001406864069 325.12058758269427 544.8283802805649 321.2638967008087L544.8283802805649 321.2638967008087L558.2635739264779 317.15430805617655Q566.2298534529955 314.6569426490539 568.2846477753117 307.3861319700893L568.2846477753117 307.3861319700893Q566.4511389953989 302.1385033930975 566.2298534529955 293.25546947662326L566.2298534529955 293.25546947662326L566.2298534529955 289.84134967954424Q566.2298534529955 283.9298644753427 567.8104644701618 283.7085789329394L567.8104644701618 283.7085789329394Q568.2846477753117 283.9298644753427 568.7272188601182 289.1774930523345L568.7272188601182 289.1774930523345Q569.4226877076712 298.2818125112119 572.1413386571971 302.8339722406506L572.1413386571971 302.8339722406506Q573.9748474371099 305.5526231901765 577.2625183528157 306.6906631225362Q580.5818014888648 307.82870305489587 584.8810634555568 307.6074175124926L584.8810634555568 307.6074175124926Q588.990652100189 307.3861319700893 591.2667319649083 303.750726630607Q593.5428118296278 300.0837090707813 593.5428118296278 295.7844471040893L593.5428118296278 295.7844471040893Q593.5428118296278 293.25546947662326 592.8473429820747 288.8297586285579Q592.1834863548648 284.40404778049253 591.4880175073117 279.7254391696805Q590.8241608801019 275.04683055886846 590.5712631173553 272.32817960934256L590.5712631173553 272.32817960934256L588.0738977102326 224.30921690783296Q587.1571433202762 207.68118900724434 598.3162571014698 207.01733238003456L598.3162571014698 207.01733238003456Q609.25408534026 206.32186353248142 618.1371192567342 206.32186353248142L618.1371192567342 206.32186353248142Q624.4911755457422 206.32186353248142 629.9600896651375 206.54314907488467Q635.4290037845326 206.76443461728795 639.9811635139713 207.2386179224378L639.9811635139713 207.2386179224378Q644.0591399382602 207.4599034648411 644.3120377010066 211.0953088043234L644.3120377010066 211.0953088043234Q644.3120377010066 213.59267421144602 643.3952833110502 219.18803721221443Q642.4785289210938 224.75178799263952 642.4785289210938 228.64009109486838L642.4785289210938 228.64009109486838Q642.4785289210938 234.33029075666676 643.7430177348267 243.1817124527976Q644.9758943282166 252.06474636927172 645.4500776333664 264.14061454042155L645.4500776333664 264.14061454042155L646.3352198029795 284.6253333228958Q647.0306886505325 297.14377257885224 647.0306886505325 301.47464676588766L647.0306886505325 301.47464676588766Q647.0306886505325 333.33976487195855 629.517518580331 340.1680044661166L629.517518580331 340.1680044661166Q627.4627242580148 344.0246953480022 621.7725245962165 346.99624406027465Q616.082324934418 349.93618055220384 608.9063509164835 351.8645259931466Q601.7303768985487 353.8244836544327 594.9021373043906 354.83607470541915Q588.0738977102326 355.8476657564055 583.9959212859438 356.10056351915205L583.9959212859438 356.10056351915205Q581.9411269636278 356.3218490615553 580.0127815226849 356.3218490615553Q578.0528238613988 356.3218490615553 576.2509273018293 356.3218490615553ZM595.3763206095406 346.99624406027465L595.3763206095406 346.99624406027465Q604.0064567632681 345.6053063651684 612.194021832189 342.44408433083595L612.194021832189 342.44408433083595Q611.0559818998295 342.1911865680894 610.6134108150229 341.3060443984763L610.6134108150229 341.3060443984763Q610.6134108150229 338.5557812286071 622.6892789861729 336.500986906291L622.6892789861729 336.500986906291Q625.629215478102 334.4778048043182 628.1265808852247 332.07527605822554Q630.6555585126905 329.67274731213297 632.45745507226 326.7328108202038L632.45745507226 326.7328108202038Q632.9316383774099 326.25862751505394 633.3742094622164 325.5947708878441Q633.816780547023 324.899302040291 634.7335349369794 324.23544541308115L634.7335349369794 324.23544541308115Q634.9548204793825 326.03734197265067 634.5122493945762 328.21858517634007Q634.0696783097696 330.3682161596861 633.1529239198132 332.8655815668087L633.1529239198132 332.8655815668087Q640.8979179039277 327.3966674474136 640.8979179039277 299.86242352837814L640.8979179039277 299.86242352837814Q640.8979179039277 296.22701818889584 639.5069802088212 268.91405981226364L639.5069802088212 268.91405981226364Q637.705083649252 267.5547343375006 635.6502893269358 266.0689599813644Q633.5954950046196 264.5831856252281 631.3194151399005 264.5831856252281L631.3194151399005 264.5831856252281Q629.9600896651375 264.5831856252281 627.1149898342383 265.62638889655784Q624.269890003339 266.6379799475442 622.6892789861729 266.6379799475442L622.6892789861729 266.6379799475442Q614.2488161545052 267.08055103235074 608.5586164927067 261.2955147095224Q602.8684168309085 255.47886616635074 602.4258457461019 246.84873001262318L602.4258457461019 246.84873001262318Q602.2045602036986 244.31975238515727 603.3426001360583 240.81079592704825Q604.4806400684181 237.27022724859592 606.2825366279874 232.49678197675397L606.2825366279874 232.49678197675397Q608.1160454079002 227.94462224731527 608.7799020351101 224.18276802645968Q609.4753708826631 220.42091380560404 609.4753708826631 217.70226285607816L609.4753708826631 217.70226285607816L609.4753708826631 216.5642229237185Q607.4205765603472 216.34293738131524 604.3541911870448 216.34293738131524Q601.2878058137422 216.34293738131524 597.3995027115134 216.34293738131524L597.3995027115134 216.34293738131524Q594.4595662195842 216.5642229237185 593.7640973720311 219.06158833084112L593.7640973720311 219.06158833084112Q593.5428118296278 219.9783427207975 593.7640973720311 224.53050245023624L593.7640973720311 224.53050245023624L596.2614627791536 269.3566308970701Q596.7356460843035 273.0236484568958 597.7472371352899 278.36611369491754Q598.7904404066196 283.7085789329394 599.9284803389793 290.75810406950063L599.9284803389793 290.75810406950063L600.5923369661891 290.75810406950063Q602.8684168309085 290.75810406950063 606.8515565941673 289.525227476111Q610.8346963574261 288.2607386623781 612.4469195949357 288.2607386623781L612.4469195949357 288.2607386623781Q616.5248960192246 288.2607386623781 620.5080357824834 290.41036964572413Q624.4911755457422 292.59161284941354 627.3362753766414 296.1005693075225Q630.1813752075407 299.64113798597486 630.1813752075407 303.750726630607L630.1813752075407 303.750726630607Q630.8768440550939 313.0763316318877 621.2983412910664 316.93302251377327L621.2983412910664 316.93302251377327L603.7851712208649 322.40193663316836Q594.9021373043906 326.5115252778005 594.9021373043906 336.05841582148446L594.9021373043906 336.05841582148446Q594.9021373043906 341.74861548328283 595.123422846794 344.46726643280874Q595.3763206095406 347.2175296026779 595.3763206095406 346.99624406027465Z " fill="#ffffff" transform="matrix(1.3523314843324714,0,0,1.3523314843324712,0,-80.44040811450378)"/></g></svg>